<svg width="358" height="60" viewBox="0 0 358 60" fill="none" xmlns="http://www.w3.org/2000/svg">
<rect width="358" height="60" rx="16" fill="black"/>
<path fill-rule="evenodd" clip-rule="evenodd" d="M118.572 23.8301C118.545 23.3798 118.576 22.0184 119.751 20.7609C120.926 19.5034 122.282 19.3803 122.733 19.3768C122.824 19.3761 122.897 19.4438 122.902 19.5352C122.929 19.9855 122.898 21.3468 121.723 22.6043C120.548 23.8619 119.192 23.985 118.741 23.9884C118.65 23.9892 118.577 23.9214 118.572 23.8301ZM114.688 23.8844C115.591 23.7989 116.244 23.947 116.92 24.1001C117.489 24.229 118.074 24.3616 118.838 24.3616C119.601 24.3616 120.186 24.229 120.755 24.1001C121.431 23.947 122.084 23.7989 122.988 23.8844C124.791 24.0552 126.03 24.5257 127.138 25.9613C127.167 25.9998 127.196 26.0382 127.224 26.0765C125.489 26.6746 124.243 28.3212 124.243 30.2589C124.243 32.2979 125.623 34.0147 127.5 34.5265C127.183 35.4887 126.732 36.4594 126.1 37.3843C125.921 37.6457 125.759 37.9013 125.603 38.1473L125.603 38.1473C124.912 39.2371 124.342 40.1358 122.988 40.4996C122.048 40.752 121.361 40.5706 120.622 40.3752C120.092 40.2352 119.535 40.088 118.838 40.088C118.14 40.088 117.583 40.2352 117.053 40.3752C116.314 40.5706 115.627 40.752 114.688 40.4996C113.333 40.1358 112.763 39.2371 112.072 38.1473C111.916 37.9014 111.754 37.6457 111.575 37.3843C109.909 34.9476 109.5 32.192 109.5 30.1151C109.5 28.443 109.517 27.2849 110.538 25.9613C111.645 24.5257 112.884 24.0552 114.688 23.8844Z" fill="white"/>
<path d="M150.944 35.426L154.36 25.822H156.432L159.806 35.426H157.762L156.964 33.13H153.548L152.764 35.426H150.944ZM155.2 28.076L153.996 31.716H156.502L155.256 28.076H155.2ZM160.762 37.484V28.174H162.526V28.804H162.596C163.091 28.2907 163.786 28.034 164.682 28.034C165.513 28.034 166.19 28.314 166.712 28.874C167.244 29.434 167.51 30.3347 167.51 31.576V31.73C167.51 34.278 166.414 35.552 164.22 35.552C163.567 35.552 163.026 35.426 162.596 35.174V37.484H160.762ZM162.596 33.844C162.932 34.0867 163.38 34.208 163.94 34.208C164.5 34.208 164.92 34.04 165.2 33.704C165.48 33.368 165.62 32.7893 165.62 31.968V31.702C165.62 30.8807 165.49 30.3113 165.228 29.994C164.967 29.6767 164.561 29.518 164.01 29.518C163.432 29.518 162.96 29.644 162.596 29.896V33.844ZM168.788 37.484V28.174H170.552V28.804H170.622C171.116 28.2907 171.812 28.034 172.708 28.034C173.538 28.034 174.215 28.314 174.738 28.874C175.27 29.434 175.536 30.3347 175.536 31.576V31.73C175.536 34.278 174.439 35.552 172.246 35.552C171.592 35.552 171.051 35.426 170.622 35.174V37.484H168.788ZM170.622 33.844C170.958 34.0867 171.406 34.208 171.966 34.208C172.526 34.208 172.946 34.04 173.226 33.704C173.506 33.368 173.646 32.7893 173.646 31.968V31.702C173.646 30.8807 173.515 30.3113 173.254 29.994C172.992 29.6767 172.586 29.518 172.036 29.518C171.457 29.518 170.986 29.644 170.622 29.896V33.844ZM176.855 35.426V25.192H178.703V35.426H176.855ZM183.63 35.552C182.426 35.552 181.516 35.2347 180.9 34.6C180.284 33.9653 179.976 33.06 179.976 31.884V31.702C179.976 30.5353 180.289 29.6347 180.914 29C181.539 28.3653 182.361 28.048 183.378 28.048C184.461 28.048 185.249 28.3467 185.744 28.944C186.248 29.5413 186.5 30.4327 186.5 31.618V32.29H181.852C181.917 32.962 182.127 33.4427 182.482 33.732C182.837 34.012 183.359 34.152 184.05 34.152C184.778 34.152 185.511 33.9933 186.248 33.676V34.88C185.576 35.328 184.703 35.552 183.63 35.552ZM183.336 29.35C182.953 29.35 182.622 29.4853 182.342 29.756C182.062 30.0267 181.899 30.4747 181.852 31.1H184.694C184.694 30.4747 184.582 30.0267 184.358 29.756C184.134 29.4853 183.793 29.35 183.336 29.35ZM197.564 32.29H193.924V34.11H198.642V35.566H187.372V34.11H192.09V32.29H188.786V28.034H195.394V26.83H188.772V25.346H197.242V29.518H190.634V30.82H197.564V32.29ZM213.537 37.106H211.647V24.632H213.537V37.106ZM211.115 32.78L210.037 34.264C209.458 33.9467 208.88 33.4847 208.301 32.878C207.722 32.2713 207.349 31.6787 207.181 31.1C207.022 31.7253 206.649 32.3833 206.061 33.074C205.473 33.7647 204.885 34.2593 204.297 34.558L203.135 33.13C204.199 32.5047 204.974 31.7253 205.459 30.792C205.944 29.8493 206.187 28.7107 206.187 27.376V25.654H208.119V27.32C208.119 29.8493 209.118 31.6693 211.115 32.78ZM215.444 26.788V25.29H222.024V26.788H219.756C219.822 27.628 220.106 28.3327 220.61 28.902C221.124 29.4713 221.772 29.8913 222.556 30.162L221.562 31.604C221.068 31.4453 220.54 31.1233 219.98 30.638C219.43 30.1527 219.042 29.658 218.818 29.154C218.66 29.7047 218.286 30.2553 217.698 30.806C217.11 31.3567 216.513 31.73 215.906 31.926L214.926 30.442C215.822 30.1433 216.522 29.6813 217.026 29.056C217.53 28.4307 217.801 27.6747 217.838 26.788H215.444ZM216.858 32.472H225.104V37.12H223.256V33.942H216.858V32.472ZM226.812 29.056H225.076V31.94H223.242V24.632H225.076V27.53H226.812V29.056ZM234.544 29.056H227.292V27.6H234.544V29.056ZM229.084 26.872V25.388H232.934V26.872H229.084ZM237.19 24.632V29.7H238.884V31.212H237.19V37.106H235.342V24.632H237.19ZM227.95 32.15C227.95 31.3473 228.234 30.7033 228.804 30.218C229.382 29.7233 230.11 29.476 230.988 29.476C231.856 29.476 232.584 29.7233 233.172 30.218C233.76 30.7127 234.054 31.3567 234.054 32.15C234.054 32.9433 233.76 33.592 233.172 34.096C232.584 34.5907 231.856 34.838 230.988 34.838C230.12 34.838 229.396 34.5907 228.818 34.096C228.239 33.592 227.95 32.9433 227.95 32.15ZM229.98 31.17C229.718 31.422 229.588 31.7487 229.588 32.15C229.588 32.5513 229.718 32.878 229.98 33.13C230.25 33.382 230.586 33.508 230.988 33.508C231.38 33.508 231.711 33.382 231.982 33.13C232.262 32.878 232.402 32.5513 232.402 32.15C232.402 31.7487 232.266 31.422 231.996 31.17C231.725 30.918 231.389 30.792 230.988 30.792C230.586 30.792 230.25 30.918 229.98 31.17ZM249.877 37.106H248.015V24.632H249.877V37.106ZM246.111 25.92C245.99 29.9427 244.109 32.9527 240.469 34.95L239.419 33.494C240.763 32.8687 241.855 32.01 242.695 30.918C243.535 29.8167 244.02 28.6547 244.151 27.432H240.189V25.92H246.111Z" fill="white"/>
</svg>
