<svg width="358" height="60" viewBox="0 0 358 60" fill="none" xmlns="http://www.w3.org/2000/svg">
<rect width="358" height="60" rx="16" fill="#FADD53"/>
<path fill-rule="evenodd" clip-rule="evenodd" d="M118.5 35.75C123.747 35.75 128 32.616 128 28.75C128 24.884 123.747 21.75 118.5 21.75C113.253 21.75 109 24.884 109 28.75C109 30.7633 110.153 32.578 112 33.855V38.25L117.142 35.679C117.585 35.7258 118.039 35.75 118.5 35.75Z" fill="black"/>
<path d="M157.526 25.794C157.517 26.9233 157.423 27.9313 157.246 28.818C157.078 29.6953 156.789 30.54 156.378 31.352C155.967 32.1547 155.407 32.8873 154.698 33.55C153.989 34.2033 153.116 34.8007 152.08 35.342C151.968 35.1833 151.795 34.9407 151.562 34.614C151.338 34.2873 151.165 34.0447 151.044 33.886C152.911 33.0647 154.203 31.8513 154.922 30.246C154.035 30.3487 152.859 30.4793 151.394 30.638L151.142 29.07C153.503 28.902 154.917 28.8087 155.384 28.79C155.487 28.2393 155.543 27.754 155.552 27.334H151.744V25.794H157.526ZM160.914 24.632V29.294H162.622V30.82H160.914V37.106H159.08V24.632H160.914ZM169.639 25.794C169.63 26.9233 169.537 27.9313 169.359 28.818C169.191 29.6953 168.902 30.54 168.491 31.352C168.081 32.1547 167.521 32.8873 166.811 33.55C166.102 34.2033 165.229 34.8007 164.193 35.342C164.081 35.1833 163.909 34.9407 163.675 34.614C163.451 34.2873 163.279 34.0447 163.157 33.886C165.024 33.0647 166.317 31.8513 167.035 30.246C166.149 30.3487 164.973 30.4793 163.507 30.638L163.255 29.07C165.617 28.902 167.031 28.8087 167.497 28.79C167.6 28.2393 167.656 27.754 167.665 27.334H163.857V25.794H169.639ZM173.027 24.632V29.294H174.735V30.82H173.027V37.106H171.193V24.632H173.027ZM186.625 35.58H175.355V34.11H180.045V32.192C178.915 32.052 178.015 31.674 177.343 31.058C176.68 30.4327 176.349 29.6673 176.349 28.762C176.349 27.7353 176.773 26.9 177.623 26.256C178.472 25.612 179.592 25.29 180.983 25.29C182.383 25.29 183.507 25.612 184.357 26.256C185.206 26.9 185.631 27.7353 185.631 28.762C185.631 29.6767 185.295 30.4467 184.623 31.072C183.951 31.688 183.045 32.0613 181.907 32.192V34.11H186.625V35.58ZM182.971 30.246C183.484 29.8727 183.741 29.3827 183.741 28.776C183.741 28.1693 183.489 27.684 182.985 27.32C182.49 26.956 181.823 26.774 180.983 26.774C180.143 26.774 179.471 26.956 178.967 27.32C178.472 27.684 178.225 28.1693 178.225 28.776C178.225 29.3827 178.477 29.8727 178.981 30.246C179.485 30.6193 180.152 30.806 180.983 30.806C181.804 30.806 182.467 30.6193 182.971 30.246ZM197.66 32.29H194.02V34.11H198.738V35.566H187.468V34.11H192.186V32.29H188.882V28.034H195.49V26.83H188.868V25.346H197.338V29.518H190.73V30.82H197.66V32.29ZM213.633 37.106H211.743V24.632H213.633V37.106ZM211.211 32.78L210.133 34.264C209.554 33.9467 208.976 33.4847 208.397 32.878C207.818 32.2713 207.445 31.6787 207.277 31.1C207.118 31.7253 206.745 32.3833 206.157 33.074C205.569 33.7647 204.981 34.2593 204.393 34.558L203.231 33.13C204.295 32.5047 205.07 31.7253 205.555 30.792C206.04 29.8493 206.283 28.7107 206.283 27.376V25.654H208.215V27.32C208.215 29.8493 209.214 31.6693 211.211 32.78ZM215.54 26.788V25.29H222.12V26.788H219.852C219.917 27.628 220.202 28.3327 220.706 28.902C221.219 29.4713 221.868 29.8913 222.652 30.162L221.658 31.604C221.163 31.4453 220.636 31.1233 220.076 30.638C219.525 30.1527 219.138 29.658 218.914 29.154C218.755 29.7047 218.382 30.2553 217.794 30.806C217.206 31.3567 216.609 31.73 216.002 31.926L215.022 30.442C215.918 30.1433 216.618 29.6813 217.122 29.056C217.626 28.4307 217.897 27.6747 217.934 26.788H215.54ZM216.954 32.472H225.2V37.12H223.352V33.942H216.954V32.472ZM226.908 29.056H225.172V31.94H223.338V24.632H225.172V27.53H226.908V29.056ZM234.639 29.056H227.387V27.6H234.639V29.056ZM229.179 26.872V25.388H233.029V26.872H229.179ZM237.285 24.632V29.7H238.979V31.212H237.285V37.106H235.437V24.632H237.285ZM228.045 32.15C228.045 31.3473 228.33 30.7033 228.899 30.218C229.478 29.7233 230.206 29.476 231.083 29.476C231.951 29.476 232.679 29.7233 233.267 30.218C233.855 30.7127 234.149 31.3567 234.149 32.15C234.149 32.9433 233.855 33.592 233.267 34.096C232.679 34.5907 231.951 34.838 231.083 34.838C230.215 34.838 229.492 34.5907 228.913 34.096C228.335 33.592 228.045 32.9433 228.045 32.15ZM230.075 31.17C229.814 31.422 229.683 31.7487 229.683 32.15C229.683 32.5513 229.814 32.878 230.075 33.13C230.346 33.382 230.682 33.508 231.083 33.508C231.475 33.508 231.807 33.382 232.077 33.13C232.357 32.878 232.497 32.5513 232.497 32.15C232.497 31.7487 232.362 31.422 232.091 31.17C231.821 30.918 231.485 30.792 231.083 30.792C230.682 30.792 230.346 30.918 230.075 31.17ZM249.973 37.106H248.111V24.632H249.973V37.106ZM246.207 25.92C246.085 29.9427 244.205 32.9527 240.565 34.95L239.515 33.494C240.859 32.8687 241.951 32.01 242.791 30.918C243.631 29.8167 244.116 28.6547 244.247 27.432H240.285V25.92H246.207Z" fill="#323031"/>
</svg>
