<svg width="164" height="158" viewBox="0 0 164 158" fill="none" xmlns="http://www.w3.org/2000/svg">
<path d="M35.0676 52.4432C25.501 50.5193 19.1915 50.4875 7.59471 57.1075C-5.72143 64.7107 -20.1922 82.1719 -18.2885 99.9438C-16.7426 114.377 -5.05777 122.846 3.54928 129.086C16.5665 138.521 20.0652 139.571 33.0697 146.531C60.5342 161.233 58.3294 180.363 78.3126 184.888C95.5249 188.785 117.882 176.119 121.162 162.934C123.772 152.445 116.319 145.035 115.039 126.634C114.003 111.729 117.239 112.821 116.891 96.5616C116.799 92.3593 116.365 72.1046 103.37 61.8127C98.8841 58.2597 92.412 49.2565 68.5491 56.1049C52.2402 60.7843 48.2575 55.095 35.0676 52.4432Z" fill="#FDFAF3"/>
<path d="M21.8547 24.9936C19.5429 34.1352 24.5359 46.0037 33.3597 47.5794C41.3794 49.012 49.3359 41.3666 51.3411 33.4291C53.6529 24.2875 48.6599 12.4191 39.8361 10.8433C31.8164 9.41071 23.8599 17.0561 21.8547 24.9936Z" fill="#FDFAF3"/>
<path d="M75.0264 6.5121C66.137 14.6668 63.2562 32.2193 71.7166 41.6667C79.4037 50.251 93.3673 48.6821 101.084 41.6029C109.974 33.4482 112.854 15.8957 104.394 6.44824C96.7068 -2.13599 82.7433 -0.567174 75.0264 6.5121Z" fill="#FDFAF3"/>
<path d="M135.722 39.128C123.959 40.6517 111.974 52.8113 113.736 64.8166C115.339 75.729 127.65 82.1267 137.862 80.8022C149.625 79.2785 161.61 67.1189 159.848 55.1135C158.245 44.2012 145.934 37.8035 135.722 39.128Z" fill="#FDFAF3"/>
<path d="M144.664 100.085C134.206 99.9859 122.227 109.157 122.264 119.868C122.298 129.602 132.246 136.695 141.325 136.779C151.784 136.878 163.763 127.707 163.725 116.996C163.691 107.262 153.743 100.169 144.664 100.085Z" fill="#FDFAF3"/>
</svg>
