<svg width="332" height="377" viewBox="0 0 332 377" fill="none" xmlns="http://www.w3.org/2000/svg">
<path d="M39.8624 134.493C19.749 135.64 7.12896 138.867 -12.5837 158.139C-35.2179 180.272 -55.0171 222.699 -41.9453 257.206C-31.3297 285.231 -3.5713 296.055 16.8763 304.031C47.7999 316.089 55.3361 316.361 84.9433 323.481C147.473 338.524 153.046 377.888 195.324 376.505C231.739 375.312 269.793 338.35 269.468 310.302C269.21 287.989 250.458 277.074 238.303 240.984C228.46 211.752 235.494 212.244 226.318 179.947C223.944 171.6 212.514 131.367 181.187 117.586C170.373 112.828 152.749 98.2193 108.653 124.345C78.5158 142.199 67.5929 132.911 39.8624 134.493Z" fill="#FDFAF3"/>
<path d="M-0.847683 86.5523C-0.697798 106.019 15.466 127.123 33.914 125.668C50.6809 124.347 62.5871 104.925 62.4527 88.0239C62.3028 68.5572 46.139 47.4535 27.691 48.9081C10.9241 50.229 -0.982066 69.6508 -0.847683 86.5523Z" fill="#FDFAF3"/>
<path d="M95.7267 21.9025C82.2228 42.8282 85.6229 79.3929 107.45 93.8521C127.283 106.99 154.358 96.5738 166.08 78.4077C179.584 57.482 176.184 20.9174 154.357 6.45815C134.524 -6.68008 107.449 3.73647 95.7267 21.9025Z" fill="#FDFAF3"/>
<path d="M233.981 55.3984C211.278 64.5771 193.68 95.1174 203.46 118.18C212.353 139.142 240.283 145.501 259.991 137.529C282.693 128.35 300.292 97.81 290.512 74.7473C281.618 53.7854 253.689 47.4266 233.981 55.3984Z" fill="#FDFAF3"/>
<path d="M283.636 172.499C262.693 177.756 243.547 202.323 249.208 223.701C254.353 243.126 277.924 252.106 296.103 247.54C317.046 242.283 336.192 217.716 330.531 196.339C325.386 176.914 301.815 167.933 283.636 172.499Z" fill="#FDFAF3"/>
</svg>
