<svg width="237" height="234" viewBox="0 0 237 234" fill="none" xmlns="http://www.w3.org/2000/svg">
<path d="M47.0615 137.967C38.3496 147.224 33.9722 154.181 33.3133 171.564C32.5586 191.525 41.9129 219.548 62.8799 229.673C79.9078 237.896 97.3172 230.801 110.143 225.575C129.537 217.67 133.106 214.523 149.754 204.929C184.916 184.67 204.558 200.274 223.316 181.285C239.472 164.929 240.849 131.484 228.523 118.782C218.718 108.677 205.392 111.821 184.158 100.573C166.96 91.4613 170.394 88.6328 152.171 77.8283C147.46 75.0373 124.758 61.5776 104.431 68.8682C97.4142 71.3847 83.0019 72.3471 74.1539 103.454C68.1057 124.713 59.0719 125.203 47.0615 137.967Z" fill="#FDFAF3"/>
<path d="M7.60711 133.69C16.1273 142.539 32.6908 145.184 40.5064 136.509C47.6102 128.624 44.6297 114.562 37.2302 106.882C28.71 98.0332 12.1465 95.3878 4.33099 104.063C-2.77281 111.947 0.207663 126.01 7.60711 133.69Z" fill="#FDFAF3"/>
<path d="M23.7588 62.1596C26.6606 77.6039 44.0923 92.8701 60.3643 90.0143C75.1494 87.4196 83.024 70.8953 80.5048 57.4878C77.6029 42.0435 60.1713 26.7773 43.8993 29.6331C29.1142 32.2278 21.2395 48.7521 23.7588 62.1596Z" fill="#FDFAF3"/>
<path d="M101.606 17.4727C95.1956 31.5319 100.397 53.1564 114.888 59.4703C128.061 65.2073 143.61 55.9932 149.173 43.7867C155.583 29.7275 150.382 8.10294 135.891 1.78901C122.718 -3.9479 107.169 5.26617 101.606 17.4727Z" fill="#FDFAF3"/>
<path d="M175.182 49.5332C167.875 61.033 169.774 80.5941 181.648 87.9244C192.437 94.5854 207.129 88.4637 213.47 78.4805C220.777 66.9806 218.878 47.4196 207.005 40.0892C196.215 33.4283 181.524 39.5499 175.182 49.5332Z" fill="#FDFAF3"/>
</svg>
